<svg width="14" height="12" viewBox="0 0 14 12" fill="none" xmlns="http://www.w3.org/2000/svg">
<path d="M2.43759 11.332C1.83759 11.332 1.39359 11.188 1.10559 10.9C0.841594 10.612 0.709594 10.276 0.709594 9.892C0.709594 9.22 0.817594 8.5 1.03359 7.732C1.27359 6.94 1.59759 6.148 2.00559 5.356C2.41359 4.54 2.89359 3.784 3.44559 3.088C3.99759 2.368 4.59759 1.756 5.24559 1.252C5.43759 1.108 5.61759 0.999997 5.78559 0.927997C5.97759 0.855999 6.14559 0.82 6.28959 0.82C6.55359 0.82 6.81759 0.939999 7.08159 1.18C7.36959 1.396 7.51359 1.636 7.51359 1.9C7.51359 1.996 7.48959 2.104 7.44159 2.224C7.39359 2.344 7.32159 2.476 7.22559 2.62C6.52959 3.532 5.96559 4.372 5.53359 5.14C5.12559 5.908 4.82559 6.652 4.63359 7.372C4.44159 8.092 4.33359 8.884 4.30959 9.748C4.28559 10.204 4.10559 10.588 3.76959 10.9C3.45759 11.188 3.01359 11.332 2.43759 11.332ZM8.9176 11.332C8.31759 11.332 7.87359 11.188 7.58559 10.9C7.32159 10.612 7.18959 10.276 7.18959 9.892C7.18959 9.22 7.29759 8.5 7.51359 7.732C7.75359 6.94 8.07759 6.148 8.48559 5.356C8.89359 4.54 9.37359 3.784 9.92559 3.088C10.4776 2.368 11.0776 1.756 11.7256 1.252C11.9176 1.108 12.0976 0.999997 12.2656 0.927997C12.4576 0.855999 12.6256 0.82 12.7696 0.82C13.0336 0.82 13.2976 0.939999 13.5616 1.18C13.8496 1.396 13.9936 1.636 13.9936 1.9C13.9936 1.996 13.9696 2.104 13.9216 2.224C13.8736 2.344 13.8016 2.476 13.7056 2.62C13.0096 3.532 12.4456 4.372 12.0136 5.14C11.6056 5.908 11.3056 6.652 11.1136 7.372C10.9216 8.092 10.8136 8.884 10.7896 9.748C10.7656 10.204 10.5856 10.588 10.2496 10.9C9.93759 11.188 9.49359 11.332 8.9176 11.332Z" fill="white"/>
</svg>
