<svg width="22" height="20" viewBox="0 0 22 20" fill="none" xmlns="http://www.w3.org/2000/svg">
<path d="M18.713 7.1281L18.467 7.6941C18.4286 7.78627 18.3637 7.865 18.2806 7.92038C18.1975 7.97575 18.0999 8.00531 18 8.00531C17.9001 8.00531 17.8025 7.97575 17.7194 7.92038C17.6363 7.865 17.5714 7.78627 17.533 7.6941L17.287 7.1281C16.8545 6.12683 16.0624 5.32402 15.067 4.8781L14.308 4.5391C14.2159 4.49675 14.1379 4.42887 14.0832 4.34353C14.0286 4.25819 13.9995 4.15896 13.9995 4.0576C13.9995 3.95625 14.0286 3.85702 14.0832 3.77168C14.1379 3.68633 14.2159 3.61846 14.308 3.5761L15.025 3.2571C16.0454 2.79848 16.8511 1.96599 17.276 0.931105L17.529 0.320105C17.5662 0.225458 17.631 0.144203 17.715 0.0869296C17.799 0.0296566 17.8983 -0.000976563 18 -0.000976562C18.1017 -0.000976563 18.201 0.0296566 18.285 0.0869296C18.369 0.144203 18.4338 0.225458 18.471 0.320105L18.724 0.930104C19.1485 1.96518 19.9538 2.79804 20.974 3.2571L21.692 3.5771C21.7838 3.61958 21.8615 3.68745 21.916 3.77268C21.9705 3.85791 21.9994 3.95695 21.9994 4.0581C21.9994 4.15926 21.9705 4.2583 21.916 4.34353C21.8615 4.42876 21.7838 4.49662 21.692 4.5391L20.932 4.8771C19.9368 5.32347 19.1451 6.12663 18.713 7.1281ZM18 10.0001C18.701 10.0001 19.374 9.88011 20 9.65911V19.0001C20 19.2653 19.8946 19.5197 19.7071 19.7072C19.5196 19.8947 19.2652 20.0001 19 20.0001H0V3.0001C0 2.73489 0.105357 2.48053 0.292893 2.293C0.48043 2.10546 0.734784 2.0001 1 2.0001H12.341C12.1146 2.64258 11.9993 3.31891 12 4.0001C11.9977 5.38728 12.4786 6.73194 13.36 7.8031L10 10.6831L3.65 5.2401L2.35 6.7581L10 13.3171L14.886 9.1291C15.8239 9.70085 16.9016 10.0023 18 10.0001Z" fill="#DCD8D8"/>
</svg>
