<svg width="14" height="12" viewBox="0 0 14 12" fill="none" xmlns="http://www.w3.org/2000/svg">
<path d="M11.5624 11.332C12.1624 11.332 12.6064 11.188 12.8944 10.9C13.1584 10.612 13.2904 10.276 13.2904 9.892C13.2904 9.22 13.1824 8.5 12.9664 7.732C12.7264 6.94 12.4024 6.148 11.9944 5.356C11.5864 4.54 11.1064 3.784 10.5544 3.088C10.0024 2.368 9.40241 1.756 8.75441 1.252C8.56241 1.108 8.38241 0.999997 8.21441 0.927997C8.02241 0.855999 7.85441 0.82 7.71041 0.82C7.44641 0.82 7.18241 0.939999 6.91841 1.18C6.63041 1.396 6.48641 1.636 6.48641 1.9C6.48641 1.996 6.51041 2.104 6.55841 2.224C6.60641 2.344 6.67841 2.476 6.77441 2.62C7.47041 3.532 8.03441 4.372 8.46641 5.14C8.87441 5.908 9.17441 6.652 9.36641 7.372C9.55841 8.092 9.66641 8.884 9.69041 9.748C9.71441 10.204 9.89441 10.588 10.2304 10.9C10.5424 11.188 10.9864 11.332 11.5624 11.332ZM5.0824 11.332C5.68241 11.332 6.12641 11.188 6.41441 10.9C6.67841 10.612 6.81041 10.276 6.81041 9.892C6.81041 9.22 6.70241 8.5 6.48641 7.732C6.24641 6.94 5.92241 6.148 5.51441 5.356C5.10641 4.54 4.62641 3.784 4.07441 3.088C3.52241 2.368 2.92241 1.756 2.27441 1.252C2.08241 1.108 1.90241 0.999997 1.73441 0.927997C1.54241 0.855999 1.37441 0.82 1.23041 0.82C0.966405 0.82 0.702405 0.939999 0.438406 1.18C0.150405 1.396 0.00640488 1.636 0.00640488 1.9C0.00640488 1.996 0.0304053 2.104 0.0784061 2.224C0.126405 2.344 0.198405 2.476 0.294405 2.62C0.990405 3.532 1.5544 4.372 1.98641 5.14C2.39441 5.908 2.69441 6.652 2.88641 7.372C3.07841 8.092 3.18641 8.884 3.21041 9.748C3.23441 10.204 3.4144 10.588 3.7504 10.9C4.06241 11.188 4.50641 11.332 5.0824 11.332Z" fill="white"/>
</svg>
